<svg width="158" height="42" viewBox="0 0 158 42" fill="none" xmlns="http://www.w3.org/2000/svg">
<path fill-rule="evenodd" clip-rule="evenodd" d="M61.5176 29.7652C61.2016 31.1749 60.8127 32.0499 60.4238 32.5117C59.9863 33.0221 59.403 33.2166 58.771 33.2166C58.1391 33.2166 58.0176 33.1436 57.3613 33.095L55.0037 38.7582C57.1669 39.1957 58.9412 39.4631 60.4724 39.4631C62.0037 39.4631 63.7294 39.1471 64.8717 38.4422C65.9655 37.8589 66.8405 36.9839 67.4238 35.8902C68.0071 34.7964 68.5662 33.095 69.0766 30.47L73.2814 10.4666H65.5037L61.4932 29.7652H61.5176Z" fill="#15508B"/>
<path fill-rule="evenodd" clip-rule="evenodd" d="M67.1078 2.61597L66.0383 8.03611H73.7918L74.9585 2.61597H67.1078Z" fill="#15508B"/>
<path fill-rule="evenodd" clip-rule="evenodd" d="M38.014 2.61597H26.4688L15.1911 13.4562L17.4272 2.61597H8.823L2.91675 31.1021H11.4966L12.9063 24.1507L18.3751 19.4354L21.8265 31.1021H32.5209L25.5209 13.3833L38.014 2.61597Z" fill="#15508B"/>
<path fill-rule="evenodd" clip-rule="evenodd" d="M56.8508 28.9146C56.8508 28.4042 56.9237 27.6507 57.1668 26.6299L59.014 17.5882C59.2571 16.6403 59.2571 15.6195 59.1355 14.5986C58.9411 13.5049 58.5522 12.6785 58.0418 12.0465C57.2883 11.2202 56.1946 10.7097 54.8578 10.3938C53.448 10.1993 51.6737 10.0049 49.389 10.0049C47.1043 10.0049 47.6147 10.0778 46.7883 10.1993C46.2779 10.1993 45.7675 10.2722 45.2571 10.3209C43.9932 10.5639 42.8994 10.8313 42.073 11.2688C41.0522 11.8521 40.1043 12.5327 39.4723 13.2375C38.7675 13.991 38.1355 15.0118 37.6251 16.3486L44.8196 17.1021C45.4029 16.2757 45.8404 15.6924 46.4237 15.3278C46.5453 15.2063 46.6668 15.2063 46.8126 15.1334C47.5175 14.8903 48.3439 14.6959 49.4133 14.6959C50.4828 14.6959 51.0661 14.9389 51.3821 15.3278C51.698 15.7167 51.771 16.3486 51.5036 17.3695C50.4828 17.7584 49.5348 18.0743 48.6355 18.2688C48.198 18.4632 47.5418 18.5118 46.7883 18.7063C45.7675 18.9493 44.3578 19.2167 42.705 19.6056C40.1043 20.0431 38.3057 20.8209 37.2362 21.7688C36.0939 22.7896 35.3161 24.0535 35.0001 25.5847C34.7571 27.2375 35.0001 28.6959 36.021 29.8625C37.1147 31.0049 38.7675 31.5153 41.1737 31.5153C43.58 31.5153 44.6737 31.2722 46.1321 30.6889C46.3265 30.616 46.5696 30.4945 46.764 30.3729C47.7119 29.984 48.6112 29.2792 49.5591 28.5257C49.5591 29.1577 49.4862 29.6195 49.5591 29.8625C49.5591 30.1056 49.7536 30.4945 49.8751 31.0778H57.1911C56.9237 30.2514 56.8022 29.5465 56.8022 28.9146H56.8508ZM50.4828 22.5465C50.2397 23.5674 49.8994 24.3209 49.4619 24.9042C49.0244 25.5361 48.3682 26.0465 47.5418 26.5084C47.3473 26.6299 47.0314 26.7514 46.7883 26.8243C46.205 27.0188 45.573 27.1403 45.014 27.1403C44.455 27.1403 43.6043 26.9459 43.2397 26.557C42.9237 26.1195 42.8508 25.6577 42.9237 25.0257C43.1182 24.4424 43.4341 24.0049 43.9446 23.5674C44.3821 23.1785 45.4029 22.8139 46.8126 22.425C46.9341 22.425 47.0557 22.3035 47.2015 22.3035C48.4168 22.0604 49.5592 21.7202 50.7015 21.3556L50.5071 22.5709L50.4828 22.5465Z" fill="#15508B"/>
<path fill-rule="evenodd" clip-rule="evenodd" d="M97.0521 12.0465C96.2986 11.2202 95.2048 10.7097 93.868 10.3938C92.4583 10.1993 90.684 10.0049 88.3993 10.0049C86.1146 10.0049 86.6736 10.0778 85.7986 10.1993C85.2882 10.1993 84.7778 10.2722 84.3403 10.3209C83.0034 10.5639 81.9826 10.8313 81.0833 11.2688C80.0625 11.8521 79.1146 12.5327 78.5312 13.2375C77.8264 13.991 77.2673 15.0118 76.6111 16.3486L83.8055 17.1021C84.3889 16.2757 84.8264 15.6924 85.4097 15.3278C85.5312 15.2063 85.6528 15.2063 85.7986 15.1334C86.5034 14.8903 87.3298 14.6959 88.3993 14.6959C89.4687 14.6959 90.0521 14.9389 90.368 15.3278C90.684 15.7167 90.7569 16.3486 90.4896 17.3695C89.4687 17.7584 88.5208 18.0743 87.6215 18.2688C87.184 18.4632 86.5278 18.5118 85.7743 18.7063C84.7534 18.9493 83.3437 19.2167 81.6909 19.6056C79.0903 20.0431 77.3646 20.8209 76.2222 21.7688C75.1284 22.7896 74.375 24.0535 74.1319 25.5847C73.8159 27.2375 74.1319 28.6959 75.0798 29.8625C76.1736 31.0049 77.8264 31.5153 80.184 31.5153C82.5416 31.5153 83.684 31.2722 85.1423 30.6889C85.3368 30.616 85.5798 30.4945 85.7743 30.3729C86.7222 29.984 87.6215 29.2792 88.6423 28.5257C88.5208 29.1577 88.5208 29.6195 88.6423 29.8625C88.6423 30.1056 88.7639 30.4945 88.8854 31.0778H96.2014C95.9583 30.2514 95.8125 29.5465 95.8125 28.9146C95.8125 28.2827 95.8854 27.6507 96.1285 26.6299L98.0486 17.5882C98.243 16.6403 98.243 15.6195 98.1215 14.5986C97.9271 13.5049 97.5382 12.6785 97.0278 12.0465H97.0521ZM89.4687 22.5465C89.2257 23.5674 88.8854 24.3209 88.4479 24.9042C88.0104 25.5361 87.4271 26.0465 86.5278 26.5084C86.3333 26.6299 86.0173 26.7514 85.7743 26.8243C85.1909 27.0188 84.559 27.1403 84 27.1403C83.4409 27.1403 82.5903 26.9459 82.2257 26.557C81.9826 26.1195 81.7882 25.6577 81.9826 25.0257C82.1041 24.4424 82.4201 24.0049 82.9305 23.5674C83.368 23.1785 84.3889 22.8139 85.7986 22.425C85.9201 22.425 86.0416 22.3035 86.1875 22.3035C87.4514 22.0604 88.5451 21.7202 89.6875 21.3556L89.493 22.5709L89.4687 22.5465Z" fill="#15508B"/>
<path fill-rule="evenodd" clip-rule="evenodd" d="M116.545 10.0049C115.451 10.0049 114.455 10.3209 113.604 10.8313C112.778 11.4146 111.83 12.4354 110.809 13.8938L111.514 10.4424H104.247L99.9202 31.0778H107.747L109.205 24.1264C109.91 20.9424 110.736 18.6577 111.806 17.4424C112.51 16.616 113.41 16.1785 114.406 16.1785C115.403 16.1785 115.622 16.3729 116.497 16.7618L120.069 11.0986C118.854 10.3938 117.59 10.0049 116.497 10.0049H116.545Z" fill="#15508B"/>
<path fill-rule="evenodd" clip-rule="evenodd" d="M123.424 2.61597L122.281 8.03611H130.108L131.201 2.61597H123.424Z" fill="#15508B"/>
<path fill-rule="evenodd" clip-rule="evenodd" d="M117.493 31.1021H125.271L129.597 10.4424H121.771L117.493 31.1021Z" fill="#15508B"/>
<path fill-rule="evenodd" clip-rule="evenodd" d="M154.438 17.5882C154.632 16.6403 154.632 15.6195 154.51 14.5986C154.389 13.5049 154 12.6785 153.417 12.0465C152.663 11.2202 151.642 10.7097 150.233 10.3938C148.969 10.1993 147.049 10.0049 144.764 10.0049C142.479 10.0049 143.038 10.0778 142.212 10.1993C141.629 10.1993 141.118 10.2722 140.681 10.3209C139.417 10.5639 138.323 10.8313 137.497 11.2688C136.403 11.8521 135.528 12.5327 134.823 13.2375C134.118 13.991 133.559 15.0118 132.976 16.3486L140.243 17.1021C140.754 16.2757 141.264 15.6924 141.847 15.3278C141.92 15.2063 142.042 15.2063 142.236 15.1334C142.941 14.8903 143.767 14.6959 144.788 14.6959C145.809 14.6959 146.514 14.9389 146.757 15.3278C147.073 15.7167 147.146 16.3486 146.951 17.3695C145.858 17.7584 144.983 18.0743 144.01 18.2688C143.573 18.4632 142.99 18.5118 142.236 18.7063C141.142 18.9493 139.806 19.2167 138.104 19.6056C135.552 20.0431 133.705 20.8209 132.635 21.7688C131.542 22.7896 130.861 24.0535 130.472 25.5847C130.156 27.2375 130.472 28.6959 131.42 29.8625C132.514 31.0049 134.167 31.5153 136.573 31.5153C138.979 31.5153 140.073 31.2722 141.531 30.6889C141.774 30.616 141.969 30.4945 142.236 30.3729C143.135 29.984 144.01 29.2792 145.031 28.5257V29.8625C145.031 30.1056 145.153 30.4945 145.347 31.0778H152.615C152.42 30.2514 152.226 29.5465 152.226 28.9146C152.226 28.2827 152.347 27.6507 152.542 26.6299L154.462 17.5882H154.438ZM145.833 22.5465C145.59 23.5674 145.323 24.3209 144.885 24.9042C144.375 25.5361 143.792 26.0465 142.965 26.5084C142.722 26.6299 142.382 26.7514 142.212 26.8243C141.58 27.0188 140.997 27.1403 140.438 27.1403C139.611 27.1403 139.028 26.9459 138.712 26.557C138.323 26.1195 138.274 25.6577 138.323 25.0257C138.444 24.4424 138.76 24.0049 139.271 23.5674C139.781 23.1785 140.729 22.8139 142.212 22.425C142.285 22.425 142.406 22.3035 142.601 22.3035C143.816 22.0604 144.958 21.7202 146.101 21.3556L145.858 22.5709L145.833 22.5465Z" fill="#15508B"/>
</svg>
